<svg id="svg" fill="#000000" stroke="#000000" width="200px" height="200px" version="1.1" viewBox="144 144 512 512" xmlns="http://www.w3.org/2000/svg">
    <g id="IconSvg_bgCarrier" stroke-width="0"></g>
    <g id="IconSvg_tracerCarrier" stroke-linecap="round" stroke-linejoin="round" stroke="#CCCCCC"></g>
     <g id="IconSvg_iconCarrier">
      <path xmlns="http://www.w3.org/2000/svg" d="m375.55 234.69 115.17-30.859c10.094-2.707 20.832-1.293 29.867 3.9375 9.0547 5.2109 15.648 13.805 18.344 23.898 15.617 58.27 49.594 185.04 65.195 243.31 2.707 10.09 1.2891 20.828-3.9219 29.867-5.2266 9.0508-13.824 15.648-23.898 18.34l-60.598 16.23c-1.9531 5.3555-5.0547 10.266-9.1484 14.375-7.3828 7.3867-17.398 11.527-27.836 11.527h-59.922c-0.33203 0.14062-0.66016 0.25-1.0234 0.34375 0 0-50.664 13.574-84.797 22.719-10.094 2.7109-20.828 1.293-29.867-3.918-7.5898-4.3789-13.445-11.133-16.734-19.145h-28.074c-2.8945 0-5.4141-1.5586-6.7852-3.8906l-62.738-94.086c-0.0625-0.09375-0.14453-0.20313-0.20703-0.31641-0.69141-1.1641-1.1016-2.5195-1.1172-3.9648v-0.078126-188.93c0-21.742 17.617-39.359 39.359-39.359h40.148c3.6523-17.965 19.539-31.488 38.574-31.488s34.918 13.523 38.57 31.488zm-17.301 330.62h-53.75c1.793 2.1875 3.9805 4.0586 6.4844 5.5078 5.418 3.1172 11.871 3.9688 17.918 2.3477zm-91.285-314.88h-40.148c-13.035 0-23.613 10.582-23.613 23.617v181.05h23.613c21.742 0 39.363 17.617 39.363 39.359v55.105h212.54c6.2656 0 12.266-2.4883 16.703-6.9102 4.4258-4.4414 6.9141-10.438 6.9141-16.707v-251.9c0-6.2656-2.4883-12.266-6.9141-16.707-4.4375-4.4219-10.438-6.9102-16.703-6.9102h-122.3c2.6758 4.6289 4.2188 10.012 4.2188 15.746 0 5.8398-1.5898 11.301-4.3594 15.996l12.594 12.594c3.0703 3.0703 3.0703 8.0625 0 11.129-3.0703 3.0703-8.0586 3.0703-11.129 0l-12.598-12.594c-4.6914 2.7695-10.152 4.3633-15.996 4.3633-8.0586 0-15.426-3.0391-21-8.0312-2.5195-2.2656-4.6758-4.9297-6.3789-7.8867-8.5938-0.82031-16.387-4.4102-22.48-9.8555-6.1875-5.543-10.613-13.008-12.328-21.461zm-16.531 280.98v-36.953c0-13.035-10.578-23.613-23.617-23.613h-16.781zm267.65-8.9258 54.145-14.516c6.0469-1.625 11.211-5.5742 14.344-11.008 3.1172-5.4141 3.9648-11.871 2.3438-17.914-15.602-58.27-49.578-185.04-65.195-243.32-1.6211-6.0469-5.5742-11.211-11.004-14.328-5.418-3.1328-11.871-3.9844-17.918-2.3633l-58.426 15.652h42.352c10.438 0 20.453 4.1406 27.836 11.523 7.3828 7.3828 11.523 17.398 11.523 27.836zm-259.78-83.129h94.465c4.3477 0 7.8711-3.5273 7.8711-7.8711 0-4.3477-3.5234-7.875-7.8711-7.875h-94.465c-4.3438 0-7.8711 3.5273-7.8711 7.875 0 4.3438 3.5273 7.8711 7.8711 7.8711zm0-47.234h188.93c4.3438 0 7.8711-3.5234 7.8711-7.8711 0-4.3438-3.5273-7.8711-7.8711-7.8711h-188.93c-4.3438 0-7.8711 3.5273-7.8711 7.8711 0 4.3477 3.5273 7.8711 7.8711 7.8711zm0-47.23h188.93c4.3438 0 7.8711-3.5273 7.8711-7.8711 0-4.3477-3.5273-7.875-7.8711-7.875h-188.93c-4.3438 0-7.8711 3.5273-7.8711 7.875 0 4.3438 3.5273 7.8711 7.8711 7.8711zm83.773-87.695c-2.2656 5.6523-5.8242 10.676-10.293 14.691-3.4023 3.0391-7.3242 5.4922-11.605 7.2109 2.5352 1.7773 5.6367 2.8164 8.9727 2.8164 4.0312 0 7.7148-1.5117 10.488-4.0156 3.2266-2.8789 5.2578-7.0664 5.2578-11.727 0-3.3398-1.0391-6.4414-2.8203-8.9766zm-36.539 8.9766c6.043 0 11.555-2.2852 15.742-6.0156 4.8359-4.3281 7.8711-10.613 7.8711-17.602 0-13.035-10.578-23.617-23.613-23.617s-23.617 10.582-23.617 23.617c0 6.9883 3.0391 13.273 7.8711 17.602 4.1875 3.7305 9.6992 6.0156 15.746 6.0156z" fill-rule="evenodd"></path>

      </g>
      </svg>