<svg id="svg" fill="#000000" stroke="#000000" width="374" height="374" version="1.1" viewBox="144 144 512 512" xmlns="http://www.w3.org/2000/svg">
    <g id="IconSvg_bgCarrier" stroke-width="0"></g>
    <g id="IconSvg_tracerCarrier" stroke-linecap="round" stroke-linejoin="round" stroke="#CCCCCC" stroke-width="0">
      <path xmlns="http://www.w3.org/2000/svg" d="m525.95 289.79h-157.44c-5.625 0-10.824-3-13.637-7.8711-2.8125-4.8711-2.8125-10.871 0-15.742 2.8125-4.8711 8.0117-7.875 13.637-7.875h157.44c5.625 0 10.824 3.0039 13.637 7.875 2.8125 4.8711 2.8125 10.871 0 15.742-2.8125 4.8711-8.0117 7.8711-13.637 7.8711zm0 31.488h-157.44c-5.625 0-10.824 3-13.637 7.8711-2.8125 4.875-2.8125 10.875 0 15.746 2.8125 4.8711 8.0117 7.8711 13.637 7.8711h157.44c5.625 0 10.824-3 13.637-7.8711 2.8125-4.8711 2.8125-10.871 0-15.746-2.8125-4.8711-8.0117-7.8711-13.637-7.8711zm0 62.977h-157.44c-5.625 0-10.824 3-13.637 7.8711s-2.8125 10.875 0 15.746 8.0117 7.8711 13.637 7.8711h157.44c5.625 0 10.824-3 13.637-7.8711s2.8125-10.875 0-15.746-8.0117-7.8711-13.637-7.8711zm0 62.977h-157.44c-5.625 0-10.824 3-13.637 7.8711-2.8125 4.8711-2.8125 10.875 0 15.746s8.0117 7.8711 13.637 7.8711h157.44c5.625 0 10.824-3 13.637-7.8711s2.8125-10.875 0-15.746c-2.8125-4.8711-8.0117-7.8711-13.637-7.8711zm78.723-220.42v284.18c-0.015625 12.578-5.043 24.629-13.965 33.492-8.9219 8.8672-21.008 13.809-33.582 13.742-2.5742 8.7344-7.6367 16.527-14.574 22.43-6.9336 5.8984-15.438 9.6484-24.473 10.789l-218.53 28.496c-12.41 1.582-24.941-1.8008-34.875-9.4023-9.9336-7.6055-16.469-18.824-18.184-31.215l-36.84-281.82c-1.5898-12.418 1.8125-24.961 9.457-34.879 7.6406-9.9141 18.906-16.395 31.32-18.02l39.359-5.1953v-12.598c0.015626-12.52 4.9961-24.527 13.852-33.383 8.8516-8.8516 20.859-13.836 33.383-13.848h220.41c12.523 0.011719 24.531 4.9961 33.383 13.848 8.8555 8.8555 13.836 20.863 13.852 33.383zm-84.703 331.41h-182.95c-12.523-0.015624-24.531-4.9961-33.383-13.848-8.8555-8.8555-13.836-20.863-13.852-33.387v-239.78l-35.266 4.5664c-4.1328 0.55078-7.875 2.7148-10.414 6.0195s-3.6641 7.4805-3.125 11.613l36.84 281.82c0.57812 4.1172 2.75 7.8438 6.0469 10.375 3.3008 2.5312 7.4609 3.668 11.586 3.1641l218.53-28.496c2.0625-0.46875 4.0664-1.1562 5.9844-2.0469zm53.215-331.41c-0.007813-4.1719-1.668-8.1758-4.6172-11.125-2.9531-2.9531-6.9531-4.6133-11.129-4.6172h-220.41c-4.1758 0.003907-8.1758 1.6641-11.129 4.6172-2.9492 2.9492-4.6094 6.9531-4.6172 11.125v284.18c0.007812 4.1758 1.668 8.1758 4.6172 11.129 2.9531 2.9492 6.9531 4.6133 11.129 4.6172h220.41c4.1758-0.003906 8.1758-1.668 11.129-4.6172 2.9492-2.9531 4.6094-6.9531 4.6172-11.129z"></path>

      </g>
     <g id="IconSvg_iconCarrier">
      <path xmlns="http://www.w3.org/2000/svg" d="m525.95 289.79h-157.44c-5.625 0-10.824-3-13.637-7.8711-2.8125-4.8711-2.8125-10.871 0-15.742 2.8125-4.8711 8.0117-7.875 13.637-7.875h157.44c5.625 0 10.824 3.0039 13.637 7.875 2.8125 4.8711 2.8125 10.871 0 15.742-2.8125 4.8711-8.0117 7.8711-13.637 7.8711zm0 31.488h-157.44c-5.625 0-10.824 3-13.637 7.8711-2.8125 4.875-2.8125 10.875 0 15.746 2.8125 4.8711 8.0117 7.8711 13.637 7.8711h157.44c5.625 0 10.824-3 13.637-7.8711 2.8125-4.8711 2.8125-10.871 0-15.746-2.8125-4.8711-8.0117-7.8711-13.637-7.8711zm0 62.977h-157.44c-5.625 0-10.824 3-13.637 7.8711s-2.8125 10.875 0 15.746 8.0117 7.8711 13.637 7.8711h157.44c5.625 0 10.824-3 13.637-7.8711s2.8125-10.875 0-15.746-8.0117-7.8711-13.637-7.8711zm0 62.977h-157.44c-5.625 0-10.824 3-13.637 7.8711-2.8125 4.8711-2.8125 10.875 0 15.746s8.0117 7.8711 13.637 7.8711h157.44c5.625 0 10.824-3 13.637-7.8711s2.8125-10.875 0-15.746c-2.8125-4.8711-8.0117-7.8711-13.637-7.8711zm78.723-220.42v284.18c-0.015625 12.578-5.043 24.629-13.965 33.492-8.9219 8.8672-21.008 13.809-33.582 13.742-2.5742 8.7344-7.6367 16.527-14.574 22.43-6.9336 5.8984-15.438 9.6484-24.473 10.789l-218.53 28.496c-12.41 1.582-24.941-1.8008-34.875-9.4023-9.9336-7.6055-16.469-18.824-18.184-31.215l-36.84-281.82c-1.5898-12.418 1.8125-24.961 9.457-34.879 7.6406-9.9141 18.906-16.395 31.32-18.02l39.359-5.1953v-12.598c0.015626-12.52 4.9961-24.527 13.852-33.383 8.8516-8.8516 20.859-13.836 33.383-13.848h220.41c12.523 0.011719 24.531 4.9961 33.383 13.848 8.8555 8.8555 13.836 20.863 13.852 33.383zm-84.703 331.41h-182.95c-12.523-0.015624-24.531-4.9961-33.383-13.848-8.8555-8.8555-13.836-20.863-13.852-33.387v-239.78l-35.266 4.5664c-4.1328 0.55078-7.875 2.7148-10.414 6.0195s-3.6641 7.4805-3.125 11.613l36.84 281.82c0.57812 4.1172 2.75 7.8438 6.0469 10.375 3.3008 2.5312 7.4609 3.668 11.586 3.1641l218.53-28.496c2.0625-0.46875 4.0664-1.1562 5.9844-2.0469zm53.215-331.41c-0.007813-4.1719-1.668-8.1758-4.6172-11.125-2.9531-2.9531-6.9531-4.6133-11.129-4.6172h-220.41c-4.1758 0.003907-8.1758 1.6641-11.129 4.6172-2.9492 2.9492-4.6094 6.9531-4.6172 11.125v284.18c0.007812 4.1758 1.668 8.1758 4.6172 11.129 2.9531 2.9492 6.9531 4.6133 11.129 4.6172h220.41c4.1758-0.003906 8.1758-1.668 11.129-4.6172 2.9492-2.9531 4.6094-6.9531 4.6172-11.129z"></path>

      </g>
      </svg>